<?xml version="1.0" encoding="UTF-8"?>
<svg xmlns="http://www.w3.org/2000/svg" xmlns:xlink="http://www.w3.org/1999/xlink" width="24pt" height="24pt" viewBox="0 0 24 24" version="1.1">
<g id="surface1">
<path style=" stroke:none;fill-rule:nonzero;fill:rgb(43.529412%,64.313725%,29.019608%);fill-opacity:1;" d="M 2.25 5.203125 L 21.75 5.203125 L 21.75 18.796875 L 2.25 18.796875 Z M 2.25 5.203125 "/>
<path style=" stroke:none;fill-rule:nonzero;fill:rgb(99.607843%,85.098039%,32.54902%);fill-opacity:1;" d="M 12 6.875 L 3.226562 12 L 12 17.125 L 20.773438 12 Z M 12 6.875 "/>
<path style=" stroke:none;fill-rule:nonzero;fill:rgb(4.313725%,33.333333%,69.411765%);fill-opacity:1;" d="M 14.878906 12 C 14.878906 13.589844 13.589844 14.878906 12 14.878906 C 10.410156 14.878906 9.121094 13.589844 9.121094 12 C 9.121094 10.410156 10.410156 9.121094 12 9.121094 C 13.589844 9.121094 14.878906 10.410156 14.878906 12 Z M 14.878906 12 "/>
<path style=" stroke:none;fill-rule:nonzero;fill:rgb(94.117647%,94.117647%,94.117647%);fill-opacity:1;" d="M 12.09375 10.585938 C 11.277344 10.355469 10.417969 10.304688 9.582031 10.445312 C 9.382812 10.753906 9.246094 11.09375 9.175781 11.453125 C 10.011719 11.320312 10.863281 11.371094 11.675781 11.601562 C 12.933594 11.941406 13.953125 12.617188 14.519531 13.390625 C 14.710938 13.046875 14.828125 12.667969 14.863281 12.277344 C 14.285156 11.542969 13.300781 10.910156 12.09375 10.585938 Z M 12.09375 10.585938 "/>
</g>
</svg>
