<?xml version="1.0" encoding="UTF-8"?>
<svg xmlns="http://www.w3.org/2000/svg" xmlns:xlink="http://www.w3.org/1999/xlink" width="24pt" height="24pt" viewBox="0 0 24 24" version="1.1">
<g id="surface1">
<rect x="0" y="0" width="24" height="24" style="fill:rgb(13.333333%,61.960784%,27.058824%);fill-opacity:1;stroke:none;"/>
<path style=" stroke:none;fill-rule:evenodd;fill:rgb(97.254902%,89.803922%,3.529412%);fill-opacity:1;" d="M 12 21.363281 L 22.082031 12.011719 L 11.9375 2.636719 L 1.824219 12.035156 Z M 12 21.363281 "/>
<path style=" stroke:none;fill-rule:evenodd;fill:rgb(16.862745%,28.627451%,63.921569%);fill-opacity:1;" d="M 16.394531 12 C 16.410156 9.8125 15.597656 7.78125 14.273438 6.679688 C 12.945312 5.578125 11.308594 5.578125 9.980469 6.679688 C 8.65625 7.78125 7.847656 9.8125 7.863281 12 C 7.847656 14.191406 8.65625 16.222656 9.980469 17.324219 C 11.308594 18.421875 12.945312 18.421875 14.273438 17.324219 C 15.597656 16.222656 16.410156 14.191406 16.394531 12 L 12.128906 12 Z M 16.394531 12 "/>
<path style=" stroke:none;fill-rule:evenodd;fill:rgb(100%,100%,93.72549%);fill-opacity:1;" d="M 10.726562 15.644531 L 10.59375 15.539062 L 10.457031 15.632812 L 10.488281 15.417969 L 10.382812 15.257812 L 10.53125 15.230469 L 10.605469 15.039062 L 10.667969 15.238281 L 10.816406 15.277344 L 10.703125 15.425781 Z M 10.726562 15.644531 "/>
<path style=" stroke:none;fill-rule:evenodd;fill:rgb(100%,100%,93.72549%);fill-opacity:1;" d="M 13.582031 16.679688 L 13.453125 16.570312 L 13.316406 16.667969 L 13.347656 16.449219 L 13.238281 16.292969 L 13.390625 16.265625 L 13.460938 16.070312 L 13.527344 16.273438 L 13.675781 16.3125 L 13.5625 16.460938 Z M 13.582031 16.679688 "/>
<path style=" stroke:none;fill-rule:evenodd;fill:rgb(100%,100%,93.72549%);fill-opacity:1;" d="M 12.351562 15.027344 L 12.238281 14.933594 L 12.121094 15.019531 L 12.148438 14.832031 L 12.054688 14.691406 L 12.1875 14.671875 L 12.246094 14.503906 L 12.300781 14.675781 L 12.429688 14.710938 L 12.335938 14.839844 Z M 12.351562 15.027344 "/>
<path style=" stroke:none;fill-rule:evenodd;fill:rgb(100%,100%,93.72549%);fill-opacity:1;" d="M 15.238281 14.433594 L 15.128906 14.34375 L 15.011719 14.425781 L 15.035156 14.238281 L 14.949219 14.105469 L 15.074219 14.082031 L 15.136719 13.917969 L 15.191406 14.089844 L 15.316406 14.121094 L 15.222656 14.25 Z M 15.238281 14.433594 "/>
<path style=" stroke:none;fill-rule:evenodd;fill:rgb(100%,100%,93.72549%);fill-opacity:1;" d="M 12.300781 13.199219 L 12.167969 13.089844 L 12.03125 13.1875 L 12.0625 12.96875 L 11.957031 12.808594 L 12.105469 12.785156 L 12.179688 12.589844 L 12.242188 12.789062 L 12.390625 12.828125 L 12.277344 12.980469 Z M 12.300781 13.199219 "/>
<path style=" stroke:none;fill-rule:evenodd;fill:rgb(100%,100%,93.72549%);fill-opacity:1;" d="M 8.78125 11.308594 L 8.648438 11.199219 L 8.511719 11.296875 L 8.542969 11.082031 L 8.4375 10.921875 L 8.585938 10.894531 L 8.660156 10.699219 L 8.722656 10.902344 L 8.871094 10.941406 L 8.757812 11.089844 Z M 8.78125 11.308594 "/>
<path style=" stroke:none;fill-rule:evenodd;fill:rgb(100%,100%,93.72549%);fill-opacity:1;" d="M 9.203125 13.820312 L 9.070312 13.710938 L 8.933594 13.808594 L 8.964844 13.589844 L 8.859375 13.433594 L 9.011719 13.40625 L 9.082031 13.210938 L 9.144531 13.414062 L 9.292969 13.453125 L 9.183594 13.601562 Z M 9.203125 13.820312 "/>
<path style=" stroke:none;fill-rule:evenodd;fill:rgb(100%,100%,93.72549%);fill-opacity:1;" d="M 13.59375 10.386719 L 13.480469 10.289062 L 13.359375 10.375 L 13.386719 10.183594 L 13.292969 10.042969 L 13.425781 10.019531 L 13.488281 9.847656 L 13.542969 10.023438 L 13.675781 10.058594 L 13.578125 10.191406 Z M 13.59375 10.386719 "/>
<path style=" stroke:none;fill-rule:evenodd;fill:rgb(100%,100%,93.72549%);fill-opacity:1;" d="M 13.355469 12.019531 L 13.261719 11.945312 L 13.167969 12.011719 L 13.1875 11.859375 L 13.113281 11.75 L 13.21875 11.730469 L 13.269531 11.59375 L 13.3125 11.734375 L 13.417969 11.761719 L 13.339844 11.867188 Z M 13.355469 12.019531 "/>
<path style=" stroke:none;fill-rule:evenodd;fill:rgb(100%,100%,93.72549%);fill-opacity:1;" d="M 8.582031 14.277344 L 8.496094 14.203125 L 8.40625 14.269531 L 8.425781 14.121094 L 8.355469 14.015625 L 8.457031 14 L 8.503906 13.871094 L 8.546875 14.003906 L 8.644531 14.03125 L 8.570312 14.128906 Z M 8.582031 14.277344 "/>
<path style=" stroke:none;fill-rule:evenodd;fill:rgb(100%,100%,93.72549%);fill-opacity:1;" d="M 15.261719 14.855469 L 15.191406 14.800781 L 15.117188 14.847656 L 15.132812 14.738281 L 15.078125 14.660156 L 15.160156 14.648438 L 15.195312 14.550781 L 15.230469 14.652344 L 15.3125 14.671875 L 15.25 14.746094 Z M 15.261719 14.855469 "/>
<path style=" stroke:none;fill-rule:evenodd;fill:rgb(100%,100%,93.72549%);fill-opacity:1;" d="M 8.582031 14.277344 L 8.496094 14.203125 L 8.40625 14.269531 L 8.425781 14.121094 L 8.355469 14.015625 L 8.457031 14 L 8.503906 13.871094 L 8.546875 14.003906 L 8.644531 14.03125 L 8.570312 14.128906 Z M 8.582031 14.277344 "/>
<path style=" stroke:none;fill-rule:evenodd;fill:rgb(100%,100%,93.72549%);fill-opacity:1;" d="M 8.582031 14.277344 L 8.496094 14.203125 L 8.40625 14.269531 L 8.425781 14.121094 L 8.355469 14.015625 L 8.457031 14 L 8.503906 13.871094 L 8.546875 14.003906 L 8.644531 14.03125 L 8.570312 14.128906 Z M 8.582031 14.277344 "/>
<path style=" stroke:none;fill-rule:evenodd;fill:rgb(100%,100%,93.72549%);fill-opacity:1;" d="M 9.984375 14.277344 L 9.898438 14.203125 L 9.804688 14.269531 L 9.824219 14.121094 L 9.753906 14.015625 L 9.855469 14 L 9.902344 13.871094 L 9.945312 14.003906 L 10.046875 14.03125 L 9.96875 14.128906 Z M 9.984375 14.277344 "/>
<path style=" stroke:none;fill-rule:evenodd;fill:rgb(100%,100%,93.72549%);fill-opacity:1;" d="M 9.808594 14.941406 L 9.722656 14.867188 L 9.632812 14.933594 L 9.652344 14.789062 L 9.582031 14.683594 L 9.683594 14.664062 L 9.730469 14.535156 L 9.773438 14.667969 L 9.871094 14.695312 L 9.796875 14.796875 Z M 9.808594 14.941406 "/>
<path style=" stroke:none;fill-rule:evenodd;fill:rgb(100%,100%,93.72549%);fill-opacity:1;" d="M 12.71875 13.730469 L 12.628906 13.65625 L 12.539062 13.722656 L 12.558594 13.578125 L 12.488281 13.46875 L 12.589844 13.453125 L 12.636719 13.324219 L 12.679688 13.457031 L 12.78125 13.484375 L 12.703125 13.582031 Z M 12.71875 13.730469 "/>
<path style=" stroke:none;fill-rule:evenodd;fill:rgb(100%,100%,93.72549%);fill-opacity:1;" d="M 11.867188 13.730469 L 11.777344 13.65625 L 11.6875 13.722656 L 11.707031 13.574219 L 11.636719 13.46875 L 11.738281 13.453125 L 11.785156 13.324219 L 11.828125 13.457031 L 11.925781 13.484375 L 11.851562 13.582031 Z M 11.867188 13.730469 "/>
<path style=" stroke:none;fill-rule:evenodd;fill:rgb(100%,100%,93.72549%);fill-opacity:1;" d="M 9.550781 13.304688 L 9.496094 13.257812 L 9.4375 13.300781 L 9.449219 13.207031 L 9.40625 13.140625 L 9.46875 13.132812 L 9.5 13.050781 L 9.527344 13.132812 L 9.589844 13.148438 L 9.542969 13.210938 Z M 9.550781 13.304688 "/>
<path style=" stroke:none;fill-rule:evenodd;fill:rgb(100%,100%,93.72549%);fill-opacity:1;" d="M 15.15625 15.382812 L 15.066406 15.308594 L 14.976562 15.375 L 14.996094 15.226562 L 14.925781 15.121094 L 15.027344 15.105469 L 15.074219 14.976562 L 15.117188 15.109375 L 15.214844 15.136719 L 15.140625 15.234375 Z M 15.15625 15.382812 "/>
<path style=" stroke:none;fill-rule:evenodd;fill:rgb(100%,100%,93.72549%);fill-opacity:1;" d="M 14.445312 15.515625 L 14.371094 15.453125 L 14.296875 15.507812 L 14.3125 15.386719 L 14.253906 15.300781 L 14.339844 15.285156 L 14.378906 15.175781 L 14.414062 15.289062 L 14.496094 15.308594 L 14.433594 15.394531 Z M 14.445312 15.515625 "/>
<path style=" stroke:none;fill-rule:evenodd;fill:rgb(100%,100%,93.72549%);fill-opacity:1;" d="M 14.78125 15.503906 L 14.710938 15.445312 L 14.640625 15.496094 L 14.65625 15.382812 L 14.601562 15.300781 L 14.679688 15.289062 L 14.71875 15.1875 L 14.75 15.292969 L 14.828125 15.3125 L 14.769531 15.390625 Z M 14.78125 15.503906 "/>
<path style=" stroke:none;fill-rule:evenodd;fill:rgb(100%,100%,93.72549%);fill-opacity:1;" d="M 15.742188 14.300781 L 15.675781 14.25 L 15.609375 14.296875 L 15.625 14.1875 L 15.570312 14.109375 L 15.648438 14.097656 L 15.683594 14 L 15.714844 14.101562 L 15.789062 14.121094 L 15.730469 14.195312 Z M 15.742188 14.300781 "/>
<path style=" stroke:none;fill-rule:evenodd;fill:rgb(100%,100%,93.72549%);fill-opacity:1;" d="M 14.4375 16.191406 L 14.351562 16.125 L 14.261719 16.183594 L 14.28125 16.050781 L 14.214844 15.953125 L 14.3125 15.9375 L 14.355469 15.820312 L 14.398438 15.941406 L 14.496094 15.964844 L 14.421875 16.058594 Z M 14.4375 16.191406 "/>
<path style=" stroke:none;fill-rule:evenodd;fill:rgb(100%,100%,93.72549%);fill-opacity:1;" d="M 14.441406 16.738281 L 14.363281 16.671875 L 14.28125 16.730469 L 14.300781 16.597656 L 14.238281 16.5 L 14.328125 16.484375 L 14.367188 16.367188 L 14.40625 16.488281 L 14.496094 16.511719 L 14.429688 16.605469 Z M 14.441406 16.738281 "/>
<path style=" stroke:none;fill-rule:evenodd;fill:rgb(100%,100%,93.72549%);fill-opacity:1;" d="M 13.796875 15.503906 L 13.730469 15.449219 L 13.664062 15.496094 L 13.675781 15.386719 L 13.625 15.308594 L 13.699219 15.296875 L 13.734375 15.199219 L 13.765625 15.300781 L 13.839844 15.320312 L 13.785156 15.394531 Z M 13.796875 15.503906 "/>
<path style=" stroke:none;fill-rule:evenodd;fill:rgb(100%,100%,93.72549%);fill-opacity:1;" d="M 13.191406 15.503906 L 13.125 15.449219 L 13.058594 15.496094 L 13.074219 15.390625 L 13.019531 15.308594 L 13.09375 15.296875 L 13.128906 15.199219 L 13.160156 15.300781 L 13.234375 15.320312 L 13.179688 15.394531 Z M 13.191406 15.503906 "/>
<path style=" stroke:none;fill-rule:evenodd;fill:rgb(100%,100%,93.72549%);fill-opacity:1;" d="M 12.164062 14.21875 L 12.097656 14.164062 L 12.03125 14.210938 L 12.042969 14.105469 L 11.992188 14.027344 L 12.066406 14.011719 L 12.101562 13.917969 L 12.132812 14.015625 L 12.207031 14.035156 L 12.152344 14.109375 Z M 12.164062 14.21875 "/>
<path style=" stroke:none;fill-rule:evenodd;fill:rgb(100%,100%,93.72549%);fill-opacity:1;" d="M 12.277344 16.835938 L 12.222656 16.789062 L 12.164062 16.832031 L 12.175781 16.738281 L 12.132812 16.671875 L 12.195312 16.660156 L 12.226562 16.578125 L 12.253906 16.664062 L 12.316406 16.679688 L 12.269531 16.742188 Z M 12.277344 16.835938 "/>
<path style=" stroke:none;fill-rule:evenodd;fill:rgb(100%,100%,93.72549%);fill-opacity:1;" d="M 10.726562 12.605469 L 10.59375 12.496094 L 10.457031 12.589844 L 10.488281 12.375 L 10.382812 12.214844 L 10.53125 12.191406 L 10.605469 11.996094 L 10.667969 12.195312 L 10.816406 12.234375 L 10.703125 12.382812 Z M 10.726562 12.605469 "/>
<path style=" stroke:none;fill-rule:evenodd;fill:rgb(100%,100%,100%);fill-opacity:1;" d="M 16.113281 14.191406 C 16.175781 13.949219 16.261719 13.582031 16.304688 13.246094 C 14.039062 10.402344 11.515625 8.945312 8.324219 9.246094 C 8.207031 9.558594 8.117188 9.886719 8.039062 10.242188 C 11.820312 9.726562 14.59375 12.117188 16.113281 14.191406 Z M 16.113281 14.191406 "/>
<path style=" stroke:none;fill-rule:nonzero;fill:rgb(18.823529%,61.960784%,22.745098%);fill-opacity:1;" d="M 15.09375 12.59375 L 15.175781 12.65625 C 15.164062 12.695312 15.160156 12.730469 15.164062 12.761719 C 15.171875 12.792969 15.183594 12.820312 15.210938 12.84375 C 15.234375 12.867188 15.257812 12.878906 15.277344 12.875 C 15.296875 12.871094 15.3125 12.859375 15.320312 12.839844 C 15.328125 12.828125 15.328125 12.8125 15.328125 12.800781 C 15.328125 12.785156 15.324219 12.769531 15.3125 12.746094 C 15.304688 12.734375 15.289062 12.707031 15.261719 12.664062 C 15.226562 12.605469 15.207031 12.5625 15.199219 12.523438 C 15.1875 12.46875 15.195312 12.421875 15.214844 12.375 C 15.230469 12.347656 15.246094 12.328125 15.269531 12.3125 C 15.292969 12.300781 15.316406 12.296875 15.34375 12.304688 C 15.371094 12.3125 15.398438 12.328125 15.429688 12.359375 C 15.476562 12.40625 15.507812 12.457031 15.519531 12.511719 C 15.527344 12.566406 15.523438 12.617188 15.5 12.671875 L 15.417969 12.597656 C 15.429688 12.566406 15.429688 12.539062 15.425781 12.515625 C 15.421875 12.496094 15.40625 12.472656 15.386719 12.449219 C 15.363281 12.429688 15.34375 12.417969 15.324219 12.417969 C 15.308594 12.417969 15.300781 12.425781 15.292969 12.441406 C 15.289062 12.453125 15.285156 12.46875 15.289062 12.484375 C 15.292969 12.507812 15.3125 12.542969 15.34375 12.59375 C 15.375 12.644531 15.398438 12.683594 15.410156 12.714844 C 15.421875 12.746094 15.425781 12.777344 15.425781 12.8125 C 15.425781 12.847656 15.414062 12.882812 15.398438 12.917969 C 15.382812 12.949219 15.363281 12.972656 15.339844 12.988281 C 15.3125 13.003906 15.285156 13.007812 15.257812 13 C 15.226562 12.988281 15.195312 12.96875 15.164062 12.9375 C 15.113281 12.890625 15.085938 12.835938 15.074219 12.777344 C 15.0625 12.722656 15.070312 12.660156 15.09375 12.59375 Z M 15.09375 12.59375 "/>
<path style=" stroke:none;fill-rule:nonzero;fill:rgb(18.823529%,61.960784%,22.745098%);fill-opacity:1;" d="M 14.710938 12.230469 L 14.792969 12.289062 C 14.78125 12.332031 14.777344 12.367188 14.785156 12.398438 C 14.792969 12.429688 14.808594 12.453125 14.832031 12.476562 C 14.859375 12.5 14.882812 12.507812 14.902344 12.503906 C 14.921875 12.5 14.933594 12.488281 14.945312 12.46875 C 14.949219 12.453125 14.953125 12.441406 14.949219 12.425781 C 14.949219 12.410156 14.941406 12.394531 14.933594 12.375 C 14.925781 12.363281 14.90625 12.335938 14.878906 12.292969 C 14.84375 12.238281 14.820312 12.195312 14.8125 12.15625 C 14.800781 12.101562 14.804688 12.054688 14.824219 12.007812 C 14.839844 11.980469 14.855469 11.957031 14.878906 11.945312 C 14.902344 11.929688 14.925781 11.921875 14.953125 11.929688 C 14.980469 11.9375 15.007812 11.953125 15.039062 11.980469 C 15.089844 12.023438 15.121094 12.074219 15.132812 12.125 C 15.144531 12.179688 15.136719 12.234375 15.117188 12.289062 L 15.035156 12.21875 C 15.042969 12.1875 15.046875 12.160156 15.039062 12.136719 C 15.035156 12.117188 15.019531 12.09375 14.996094 12.074219 C 14.972656 12.054688 14.953125 12.042969 14.933594 12.046875 C 14.921875 12.046875 14.914062 12.054688 14.90625 12.070312 C 14.898438 12.082031 14.898438 12.097656 14.902344 12.113281 C 14.90625 12.136719 14.925781 12.171875 14.960938 12.21875 C 14.992188 12.265625 15.015625 12.304688 15.027344 12.335938 C 15.042969 12.367188 15.046875 12.398438 15.046875 12.433594 C 15.046875 12.46875 15.039062 12.5 15.023438 12.539062 C 15.011719 12.570312 14.992188 12.59375 14.964844 12.613281 C 14.941406 12.628906 14.914062 12.636719 14.886719 12.628906 C 14.855469 12.621094 14.824219 12.601562 14.789062 12.574219 C 14.738281 12.527344 14.707031 12.476562 14.695312 12.421875 C 14.683594 12.363281 14.6875 12.300781 14.710938 12.230469 Z M 14.710938 12.230469 "/>
<path style=" stroke:none;fill-rule:nonzero;fill:rgb(18.823529%,61.960784%,22.745098%);fill-opacity:1;" d="M 14.234375 12.050781 L 14.476562 11.476562 L 14.773438 11.738281 L 14.734375 11.832031 L 14.519531 11.644531 L 14.464844 11.773438 L 14.664062 11.949219 L 14.621094 12.042969 L 14.421875 11.867188 L 14.355469 12.023438 L 14.578125 12.21875 L 14.539062 12.316406 Z M 14.234375 12.050781 "/>
<path style=" stroke:none;fill-rule:nonzero;fill:rgb(18.823529%,61.960784%,22.745098%);fill-opacity:1;" d="M 13.542969 11.238281 L 13.578125 11.136719 L 13.761719 11.269531 L 13.675781 11.507812 C 13.648438 11.519531 13.613281 11.523438 13.574219 11.515625 C 13.535156 11.511719 13.496094 11.496094 13.464844 11.46875 C 13.421875 11.4375 13.386719 11.394531 13.363281 11.347656 C 13.34375 11.296875 13.332031 11.242188 13.332031 11.179688 C 13.332031 11.121094 13.34375 11.0625 13.363281 11.003906 C 13.386719 10.941406 13.414062 10.894531 13.449219 10.859375 C 13.484375 10.824219 13.527344 10.804688 13.570312 10.804688 C 13.605469 10.804688 13.640625 10.820312 13.679688 10.851562 C 13.730469 10.886719 13.765625 10.933594 13.785156 10.988281 C 13.800781 11.039062 13.804688 11.09375 13.792969 11.15625 L 13.703125 11.117188 C 13.707031 11.082031 13.703125 11.050781 13.695312 11.023438 C 13.683594 10.996094 13.667969 10.972656 13.644531 10.953125 C 13.605469 10.925781 13.570312 10.921875 13.539062 10.9375 C 13.503906 10.957031 13.476562 10.996094 13.453125 11.0625 C 13.425781 11.132812 13.417969 11.195312 13.429688 11.246094 C 13.4375 11.296875 13.460938 11.335938 13.496094 11.363281 C 13.511719 11.375 13.53125 11.382812 13.554688 11.386719 C 13.574219 11.390625 13.59375 11.390625 13.613281 11.382812 L 13.640625 11.308594 Z M 13.542969 11.238281 "/>
<path style=" stroke:none;fill-rule:nonzero;fill:rgb(18.823529%,61.960784%,22.745098%);fill-opacity:1;" d="M 10.523438 10.167969 L 10.59375 9.503906 L 10.734375 9.535156 L 10.769531 10.003906 L 10.898438 9.570312 L 11.039062 9.601562 L 10.972656 10.261719 L 10.882812 10.246094 L 10.9375 9.722656 L 10.792969 10.226562 L 10.703125 10.207031 L 10.664062 9.664062 L 10.609375 10.1875 Z M 10.523438 10.167969 "/>
<path style=" stroke:none;fill-rule:nonzero;fill:rgb(18.823529%,61.960784%,22.745098%);fill-opacity:1;" d="M 10.054688 10.089844 L 10.097656 9.421875 L 10.441406 9.46875 L 10.433594 9.582031 L 10.183594 9.550781 L 10.171875 9.695312 L 10.40625 9.726562 L 10.398438 9.839844 L 10.164062 9.808594 L 10.152344 9.992188 L 10.414062 10.027344 L 10.40625 10.136719 Z M 10.054688 10.089844 "/>
<path style=" stroke:none;fill-rule:nonzero;fill:rgb(18.823529%,61.960784%,22.745098%);fill-opacity:1;" d="M 8.492188 9.671875 C 8.492188 9.605469 8.5 9.546875 8.515625 9.503906 C 8.527344 9.46875 8.542969 9.4375 8.5625 9.410156 C 8.582031 9.386719 8.601562 9.367188 8.625 9.355469 C 8.652344 9.335938 8.6875 9.328125 8.722656 9.332031 C 8.792969 9.335938 8.847656 9.367188 8.886719 9.429688 C 8.925781 9.492188 8.945312 9.578125 8.945312 9.6875 C 8.941406 9.796875 8.921875 9.878906 8.878906 9.9375 C 8.835938 10 8.78125 10.027344 8.710938 10.023438 C 8.644531 10.019531 8.589844 9.988281 8.546875 9.925781 C 8.507812 9.863281 8.488281 9.78125 8.492188 9.671875 Z M 8.492188 9.671875 "/>
<path style=" stroke:none;fill-rule:nonzero;fill:rgb(96.862745%,100%,100%);fill-opacity:1;" d="M 8.589844 9.671875 C 8.585938 9.75 8.597656 9.804688 8.621094 9.847656 C 8.644531 9.886719 8.675781 9.90625 8.714844 9.910156 C 8.75 9.910156 8.78125 9.890625 8.808594 9.855469 C 8.832031 9.816406 8.847656 9.757812 8.847656 9.679688 C 8.847656 9.605469 8.839844 9.546875 8.816406 9.507812 C 8.792969 9.46875 8.761719 9.449219 8.722656 9.445312 C 8.683594 9.445312 8.652344 9.464844 8.628906 9.5 C 8.601562 9.539062 8.589844 9.59375 8.589844 9.671875 Z M 8.589844 9.671875 "/>
<path style=" stroke:none;fill-rule:nonzero;fill:rgb(18.823529%,61.960784%,22.745098%);fill-opacity:1;" d="M 9.046875 10.019531 L 9.050781 9.347656 L 9.25 9.351562 C 9.300781 9.355469 9.335938 9.359375 9.359375 9.375 C 9.378906 9.386719 9.398438 9.40625 9.410156 9.4375 C 9.425781 9.46875 9.433594 9.503906 9.429688 9.542969 C 9.429688 9.59375 9.421875 9.636719 9.398438 9.667969 C 9.378906 9.699219 9.347656 9.71875 9.308594 9.726562 C 9.328125 9.746094 9.34375 9.765625 9.355469 9.785156 C 9.371094 9.804688 9.386719 9.84375 9.410156 9.894531 L 9.464844 10.027344 L 9.351562 10.023438 L 9.285156 9.878906 C 9.261719 9.824219 9.246094 9.792969 9.238281 9.777344 C 9.226562 9.765625 9.21875 9.753906 9.207031 9.75 C 9.199219 9.746094 9.183594 9.742188 9.160156 9.742188 L 9.140625 9.742188 L 9.140625 10.019531 Z M 9.046875 10.019531 "/>
<path style=" stroke:none;fill-rule:nonzero;fill:rgb(100%,100%,100%);fill-opacity:1;" d="M 9.144531 9.632812 L 9.210938 9.636719 C 9.257812 9.636719 9.285156 9.632812 9.296875 9.628906 C 9.308594 9.625 9.316406 9.613281 9.324219 9.601562 C 9.332031 9.585938 9.332031 9.570312 9.335938 9.550781 C 9.335938 9.527344 9.332031 9.507812 9.320312 9.496094 C 9.3125 9.480469 9.300781 9.472656 9.285156 9.46875 C 9.277344 9.46875 9.257812 9.464844 9.21875 9.464844 L 9.144531 9.464844 Z M 9.144531 9.632812 "/>
<path style=" stroke:none;fill-rule:nonzero;fill:rgb(18.823529%,61.960784%,22.745098%);fill-opacity:1;" d="M 9.578125 9.382812 L 9.75 9.394531 C 9.789062 9.398438 9.820312 9.402344 9.839844 9.414062 C 9.867188 9.425781 9.890625 9.449219 9.90625 9.480469 C 9.925781 9.511719 9.941406 9.550781 9.949219 9.59375 C 9.957031 9.636719 9.960938 9.6875 9.957031 9.75 C 9.957031 9.804688 9.949219 9.855469 9.9375 9.894531 C 9.925781 9.941406 9.90625 9.980469 9.882812 10.007812 C 9.867188 10.027344 9.84375 10.046875 9.816406 10.054688 C 9.796875 10.0625 9.765625 10.066406 9.730469 10.0625 L 9.554688 10.050781 Z M 9.578125 9.382812 "/>
<path style=" stroke:none;fill-rule:nonzero;fill:rgb(100%,100%,100%);fill-opacity:1;" d="M 9.667969 9.5 L 9.652344 9.945312 L 9.722656 9.949219 C 9.75 9.953125 9.769531 9.953125 9.78125 9.949219 C 9.796875 9.945312 9.808594 9.933594 9.820312 9.921875 C 9.832031 9.910156 9.839844 9.890625 9.847656 9.859375 C 9.855469 9.832031 9.859375 9.789062 9.859375 9.738281 C 9.863281 9.6875 9.859375 9.648438 9.855469 9.617188 C 9.851562 9.589844 9.84375 9.566406 9.832031 9.550781 C 9.820312 9.535156 9.804688 9.523438 9.789062 9.519531 C 9.777344 9.511719 9.75 9.507812 9.710938 9.503906 Z M 9.667969 9.5 "/>
<path style=" stroke:none;fill-rule:nonzero;fill:rgb(18.823529%,61.960784%,22.745098%);fill-opacity:1;" d="M 11.875 10.578125 L 11.984375 9.925781 L 12.128906 9.976562 C 12.1875 9.996094 12.222656 10.011719 12.238281 10.023438 C 12.261719 10.042969 12.28125 10.074219 12.292969 10.113281 C 12.304688 10.148438 12.304688 10.195312 12.296875 10.246094 C 12.289062 10.289062 12.28125 10.320312 12.265625 10.34375 C 12.25 10.367188 12.234375 10.382812 12.214844 10.394531 C 12.199219 10.402344 12.179688 10.410156 12.164062 10.410156 C 12.140625 10.40625 12.109375 10.398438 12.066406 10.386719 L 12.007812 10.363281 L 11.964844 10.609375 Z M 11.875 10.578125 "/>
<path style=" stroke:none;fill-rule:nonzero;fill:rgb(100%,100%,100%);fill-opacity:1;" d="M 12.054688 10.070312 L 12.027344 10.253906 L 12.074219 10.269531 C 12.113281 10.285156 12.136719 10.289062 12.148438 10.285156 C 12.164062 10.285156 12.175781 10.277344 12.183594 10.261719 C 12.191406 10.25 12.199219 10.234375 12.203125 10.214844 C 12.207031 10.191406 12.203125 10.171875 12.199219 10.152344 C 12.191406 10.132812 12.179688 10.121094 12.164062 10.113281 C 12.15625 10.105469 12.132812 10.09375 12.101562 10.085938 Z M 12.054688 10.070312 "/>
<path style=" stroke:none;fill-rule:nonzero;fill:rgb(18.823529%,61.960784%,22.745098%);fill-opacity:1;" d="M 12.308594 10.765625 L 12.464844 10.132812 L 12.648438 10.226562 C 12.695312 10.25 12.730469 10.273438 12.75 10.296875 C 12.765625 10.320312 12.777344 10.347656 12.785156 10.382812 C 12.789062 10.417969 12.789062 10.457031 12.78125 10.492188 C 12.769531 10.539062 12.75 10.574219 12.722656 10.59375 C 12.695312 10.617188 12.660156 10.621094 12.621094 10.609375 C 12.636719 10.636719 12.648438 10.660156 12.652344 10.6875 C 12.664062 10.710938 12.671875 10.753906 12.679688 10.816406 L 12.703125 10.964844 L 12.597656 10.910156 L 12.566406 10.742188 C 12.554688 10.679688 12.546875 10.640625 12.542969 10.625 C 12.535156 10.609375 12.53125 10.59375 12.523438 10.585938 C 12.515625 10.574219 12.5 10.566406 12.480469 10.554688 L 12.460938 10.546875 L 12.394531 10.808594 Z M 12.308594 10.765625 "/>
<path style=" stroke:none;fill-rule:nonzero;fill:rgb(100%,100%,100%);fill-opacity:1;" d="M 12.484375 10.445312 L 12.550781 10.480469 C 12.59375 10.5 12.621094 10.511719 12.632812 10.511719 C 12.644531 10.511719 12.65625 10.507812 12.664062 10.496094 C 12.675781 10.488281 12.679688 10.472656 12.6875 10.453125 C 12.691406 10.433594 12.691406 10.414062 12.6875 10.398438 C 12.683594 10.378906 12.671875 10.367188 12.660156 10.355469 C 12.652344 10.351562 12.628906 10.339844 12.59375 10.320312 L 12.523438 10.285156 Z M 12.484375 10.445312 "/>
<path style=" stroke:none;fill-rule:nonzero;fill:rgb(18.823529%,61.960784%,22.745098%);fill-opacity:1;" d="M 12.855469 10.738281 C 12.871094 10.675781 12.890625 10.621094 12.914062 10.585938 C 12.929688 10.558594 12.949219 10.535156 12.972656 10.515625 C 12.996094 10.496094 13.019531 10.488281 13.042969 10.484375 C 13.074219 10.480469 13.109375 10.484375 13.144531 10.503906 C 13.210938 10.53125 13.257812 10.582031 13.285156 10.660156 C 13.308594 10.734375 13.3125 10.828125 13.289062 10.929688 C 13.265625 11.035156 13.230469 11.105469 13.179688 11.144531 C 13.125 11.1875 13.066406 11.191406 13.003906 11.164062 C 12.9375 11.132812 12.890625 11.082031 12.863281 11.007812 C 12.835938 10.929688 12.835938 10.84375 12.855469 10.738281 Z M 12.855469 10.738281 "/>
<path style=" stroke:none;fill-rule:nonzero;fill:rgb(100%,100%,100%);fill-opacity:1;" d="M 12.949219 10.777344 C 12.933594 10.847656 12.933594 10.910156 12.949219 10.957031 C 12.964844 11.003906 12.988281 11.035156 13.027344 11.054688 C 13.0625 11.070312 13.09375 11.0625 13.125 11.035156 C 13.15625 11.011719 13.179688 10.960938 13.199219 10.886719 C 13.214844 10.8125 13.214844 10.753906 13.199219 10.707031 C 13.183594 10.660156 13.160156 10.628906 13.121094 10.613281 C 13.085938 10.597656 13.050781 10.601562 13.019531 10.628906 C 12.988281 10.652344 12.964844 10.703125 12.949219 10.777344 Z M 12.949219 10.777344 "/>
<path style=" stroke:none;fill-rule:nonzero;fill:rgb(18.823529%,61.960784%,22.745098%);fill-opacity:1;" d="M 13.769531 11.671875 L 13.984375 11.078125 L 14.160156 11.207031 C 14.203125 11.242188 14.234375 11.269531 14.25 11.296875 C 14.265625 11.320312 14.277344 11.351562 14.277344 11.386719 C 14.28125 11.425781 14.273438 11.460938 14.261719 11.496094 C 14.246094 11.539062 14.222656 11.570312 14.195312 11.585938 C 14.167969 11.601562 14.132812 11.601562 14.09375 11.578125 C 14.105469 11.609375 14.113281 11.636719 14.121094 11.664062 C 14.125 11.691406 14.128906 11.734375 14.132812 11.796875 L 14.140625 11.949219 L 14.042969 11.875 L 14.027344 11.699219 C 14.023438 11.636719 14.019531 11.597656 14.015625 11.582031 C 14.011719 11.5625 14.007812 11.546875 14 11.539062 C 13.992188 11.527344 13.976562 11.511719 13.960938 11.5 L 13.941406 11.484375 L 13.851562 11.734375 Z M 13.769531 11.671875 "/>
<path style=" stroke:none;fill-rule:nonzero;fill:rgb(100%,100%,100%);fill-opacity:1;" d="M 13.976562 11.390625 L 14.039062 11.4375 C 14.078125 11.46875 14.105469 11.484375 14.117188 11.484375 C 14.128906 11.488281 14.140625 11.484375 14.148438 11.476562 C 14.160156 11.46875 14.167969 11.457031 14.171875 11.4375 C 14.179688 11.421875 14.183594 11.402344 14.179688 11.382812 C 14.175781 11.363281 14.167969 11.351562 14.15625 11.335938 C 14.152344 11.332031 14.128906 11.3125 14.097656 11.289062 L 14.03125 11.242188 Z M 13.976562 11.390625 "/>
<path style=" stroke:none;fill-rule:nonzero;fill:rgb(18.823529%,61.960784%,22.745098%);fill-opacity:1;" d="M 15.503906 12.894531 C 15.527344 12.839844 15.558594 12.796875 15.585938 12.769531 C 15.609375 12.75 15.632812 12.734375 15.660156 12.726562 C 15.683594 12.71875 15.710938 12.71875 15.734375 12.726562 C 15.761719 12.734375 15.792969 12.753906 15.824219 12.785156 C 15.882812 12.839844 15.917969 12.910156 15.925781 12.996094 C 15.9375 13.078125 15.921875 13.164062 15.878906 13.257812 C 15.835938 13.347656 15.785156 13.398438 15.730469 13.417969 C 15.671875 13.433594 15.613281 13.417969 15.554688 13.359375 C 15.5 13.304688 15.464844 13.234375 15.453125 13.152344 C 15.445312 13.070312 15.460938 12.984375 15.503906 12.894531 Z M 15.503906 12.894531 "/>
<path style=" stroke:none;fill-rule:nonzero;fill:rgb(100%,100%,100%);fill-opacity:1;" d="M 15.585938 12.96875 C 15.554688 13.03125 15.542969 13.089844 15.546875 13.140625 C 15.550781 13.195312 15.570312 13.234375 15.601562 13.265625 C 15.632812 13.296875 15.664062 13.304688 15.699219 13.292969 C 15.734375 13.277344 15.769531 13.238281 15.800781 13.175781 C 15.828125 13.113281 15.84375 13.054688 15.835938 13.003906 C 15.832031 12.953125 15.8125 12.914062 15.78125 12.882812 C 15.75 12.851562 15.714844 12.84375 15.679688 12.855469 C 15.648438 12.867188 15.613281 12.90625 15.585938 12.96875 Z M 15.585938 12.96875 "/>
<path style=" stroke:none;fill-rule:nonzero;fill:rgb(18.823529%,61.960784%,22.745098%);fill-opacity:1;" d="M 11.34375 10.304688 L 11.421875 9.835938 L 11.664062 9.914062 L 11.652344 9.996094 L 11.472656 9.9375 L 11.457031 10.042969 L 11.621094 10.09375 L 11.609375 10.175781 L 11.445312 10.121094 L 11.425781 10.25 L 11.605469 10.308594 L 11.59375 10.386719 Z M 11.34375 10.304688 "/>
</g>
</svg>
